<?xml version="1.0" encoding="utf-8"?>
<svg preserveAspectRatio="xMaxYMid" style="" viewBox="-76.747 37.041 700.135 424.142" xmlns="http://www.w3.org/2000/svg" xmlns:bx="https://boxy-svg.com">
  <g style="transform-origin: 385.94px 331.186px;" transform="matrix(-1, 0, 0, -1, -0.000016, 0)"/>
  <g transform="matrix(1, 0, 0, 1, 26.320869, 0.752025)">
    <path d="M 477 296 m -104.277 0 a 104.277 104.277 0 1 0 208.554 0 a 104.277 104.277 0 1 0 -208.554 0 Z M 477 296 m -85.309 0 a 85.309 85.309 0 0 1 170.618 0 a 85.309 85.309 0 0 1 -170.618 0 Z" style="stroke-width: 0px; stroke: rgb(0, 0, 0); paint-order: stroke; fill: rgb(255, 255, 255); transform-origin: 477px 296px;" transform="matrix(-0.664795, 0.747026, -0.747026, -0.664795, -227.000137, -45.999924)" bx:shape="ring 477 296 85.309 85.309 104.277 104.277 1@aeb14efc"/>
    <path d="M -314.551 -158.433 H -201.162 L -201.162 -175.612 L -148.77 -138.362 L -201.162 -101.111 L -201.162 -118.29 H -314.551 V -158.433 Z" style="fill: rgb(255, 0, 16); stroke-width: 6px; stroke: rgb(255, 255, 255); stroke-linejoin: round; stroke-linecap: round; transform-origin: -148.77px -138.361px;" transform="matrix(-1, 0.000041, -0.000041, -1, 163.67323, 388.363949)" bx:shape="arrow -314.551 -175.612 165.781 74.501 40.143 52.392 0 1@b5222a99"/>
    <path d="M -314.551 -158.433 H -201.162 L -201.162 -175.612 L -148.77 -138.361 L -201.162 -101.111 L -201.162 -118.29 H -314.551 V -158.433 Z" style="fill: rgb(35, 162, 23); fill-rule: nonzero; stroke: rgb(255, 255, 255); stroke-linejoin: round; stroke-width: 6px; transform-origin: -148.77px -138.361px;" transform="matrix(0.866005, -0.500035, 0.500035, 0.866005, 606.584655, 273.06345)" bx:shape="arrow -314.551 -175.612 165.781 74.501 40.143 52.392 0 1@3699e5e8"/>
    <rect width="149.7" height="149.7" style="fill: rgb(216, 216, 216); stroke: rgb(0, 0, 0); visibility: hidden;" y="175.15" x="175.15"/>
    <path d="M -314.551 -158.433 H -201.162 L -201.162 -175.612 L -148.77 -138.361 L -201.162 -101.111 L -201.162 -118.29 H -314.551 V -158.433 Z" style="fill: rgb(35, 162, 23); stroke: rgb(255, 255, 255); stroke-width: 6px; stroke-linejoin: round; stroke-linecap: round; transform-origin: -148.77px -138.361px;" transform="matrix(0.866005, 0.500035, 0.500035, -0.866005, 606.584525, 503.373392)" bx:shape="arrow -314.551 -175.612 165.781 74.501 40.143 52.392 0 1@3699e5e8"/>
    <path d="M 477 296 m -95.5 0 a 95.5 95.371 0 1 0 191 0 a 95.5 95.371 0 1 0 -191 0 Z M 477 296 m -36.934 0 a 36.934 36.885 0 0 1 73.868 0 a 36.934 36.885 0 0 1 -73.868 0 Z" style="stroke-width: 0px; stroke: rgb(0, 0, 0); paint-order: stroke; fill: rgb(44, 44, 44); transform-origin: 476.821px 295.8px;" transform="matrix(-0.664795, 0.747026, -0.747026, -0.664795, -225.821732, -46.207848)" bx:shape="ring 477 296 36.934 36.885 95.5 95.371 1@2ef521db"/>
  </g>
</svg>